<svg xmlns="http://www.w3.org/2000/svg" width="1000" height="1000" fill="none" viewBox="0 0 1000 1000">
  <g clip-path="url(#a)">
    <path stroke="#fff" stroke-width="77.436" d="M713.483 130.238 926.965 500 713.483 869.763H286.518L73.035 500l213.483-369.762h426.965Z"/>
    <path fill="#fff" d="M367.931 303.416H519.85c16.639 0 32.193 2.713 46.661 8.139 14.469 5.064 26.948 12.298 37.438 21.702 10.851 9.043 19.351 19.714 25.5 32.012 6.149 12.298 9.224 25.501 9.224 39.608 0 20.617-5.064 37.979-15.192 52.086-9.766 13.745-22.064 24.235-36.895 31.469v4.341c19.895 7.234 35.81 18.628 47.746 34.182 12.299 15.192 18.448 34.182 18.448 56.97 0 16.638-3.437 31.649-10.309 45.033-6.511 13.021-15.554 24.235-27.129 33.639-11.574 9.405-25.139 16.639-40.692 21.703-15.192 5.064-31.65 7.596-49.374 7.596H367.931v-388.48Zm146.494 158.43c17 0 30.022-4.521 39.065-13.564 9.404-9.404 14.106-20.437 14.106-33.097s-4.521-23.511-13.564-32.554c-9.043-9.043-21.522-13.564-37.437-13.564h-75.417v92.779h73.247Zm8.138 162.771c18.447 0 32.554-4.521 42.321-13.564 9.766-9.405 14.649-21.341 14.649-35.81 0-14.468-5.064-26.405-15.192-35.809-9.766-9.766-24.416-14.65-43.948-14.65h-79.215v99.833h81.385Z"/>
  </g>
  <defs>
    <clipPath id="a">
      <path fill="#fff" d="M0 0h1000v1000H0z"/>
    </clipPath>
  </defs>
</svg>
